PathFileType	4	(x/y/z)	S08_M20_T04
DataRate	CameraRate	NumFrames	NumMarkers	Units	OrigDataRate	OrigDataStartFrame	OrigNumFrames
240	240	4	51	mm	240	1	463
Frame#	Time	Sternum			R.Acromium			L.Acromium			Top.Head			R.ASIS			L.ASIS			R.PSIS			L.PSIS			R.Great.Tro			L.Great.Tro			R.Iliac.Crest			L.Iliac.Crest			V.Sacral			R.Thigh.Upper.Post			R.Thigh.Lower.Ant			R.Thigh.Lower.Post			R.Thigh.Upper.Ant			R.Knee.Lat			R.Knee.Med			R.Shank.Upper.Post			R.Shank.Lower.Ant			R.Shank.Lower.Post			R.Shank.Upper.Ant			R.Ankle.Lat			R.Ankle.Med			R.Heel.Upper			R.Heel.Med			R.Heel.Lat			R.Toe.Lat			R.Toe.Med			R.Toe.Tip			L.Thigh.Upper.Post			L.Thigh.Lower.Ant			L.Thigh.Lower.Post			L.Thigh.Upper.Ant			L.Knee.Lat			L.Knee.Med			L.Shank.Upper.Post			L.Shank.Lower.Ant			L.Shank.Lower.Post			L.Shank.Upper.Ant			L.Ankle.Lat			L.Ankle.Med			L.Heel.Upper			L.Heel.Med			L.Heel.Lat			L.Toe.Lat			L.Toe.Med			L.Toe.Tip			Cervical.Spine			Back			
		X1	Y1	Z1	X2	Y2	Z2	X3	Y3	Z3	X4	Y4	Z4	X5	Y5	Z5	X6	Y6	Z6	X7	Y7	Z7	X8	Y8	Z8	X9	Y9	Z9	X10	Y10	Z10	X11	Y11	Z11	X12	Y12	Z12	X13	Y13	Z13	X14	Y14	Z14	X15	Y15	Z15	X16	Y16	Z16	X17	Y17	Z17	X18	Y18	Z18	X19	Y19	Z19	X20	Y20	Z20	X21	Y21	Z21	X22	Y22	Z22	X23	Y23	Z23	X24	Y24	Z24	X25	Y25	Z25	X26	Y26	Z26	X27	Y27	Z27	X28	Y28	Z28	X29	Y29	Z29	X30	Y30	Z30	X31	Y31	Z31	X32	Y32	Z32	X33	Y33	Z33	X34	Y34	Z34	X35	Y35	Z35	X36	Y36	Z36	X37	Y37	Z37	X38	Y38	Z38	X39	Y39	Z39	X40	Y40	Z40	X41	Y41	Z41	X42	Y42	Z42	X43	Y43	Z43	X44	Y44	Z44	X45	Y45	Z45	X46	Y46	Z46	X47	Y47	Z47	X48	Y48	Z48	X49	Y49	Z49	X50	Y50	Z50	X51	Y51	Z51	

1	0	NaN	NaN	NaN	-1618.6	1420	519.9	-1667.7	1445	186.69	-1621.3	1738.5	361.41	NaN	NaN	NaN	NaN	NaN	NaN	-1752.2	958.16	323.99	NaN	NaN	NaN	-1649.1	870.88	530.66	-1602.1	865.97	160.98	-1650.5	1043.5	505.52	-1616.8	1049.5	194.5	NaN	NaN	NaN	-1742.3	696.42	508.45	-1689.1	577.92	472.81	NaN	NaN	NaN	-1670.4	661.98	504.25	-1778.2	498.33	466.23	-1791.8	511.47	338.94	-1927.4	367.69	467.79	-1915.6	274.64	450.22	NaN	NaN	NaN	-1857.9	350.8	451.1	-2040.6	151.3	409.96	-2007.4	153.46	333.04	-2101.9	128.71	360.38	-2095.1	97.622	334.77	-2104.3	105.25	395	-1944.3	43.429	450.76	-1915.4	47.591	332.81	-1852.3	51.735	383.19	-1531.5	658.58	172.82	-1410.7	618.48	194.45	-1477.1	587.13	190.86	-1463.2	688	170.85	-1418.9	510.57	207.8	-1405.3	512.09	333.08	-1392.9	322.59	206.68	-1292.9	272.41	223.29	-1366.2	254.49	221.84	-1327.9	338.72	209.29	-1265.6	105.81	230	-1245	123.61	316.23	-1329.5	69.753	284.97	-1269.1	36.963	314.83	NaN	NaN	NaN	-1122.7	106.72	211.98	-1104.7	127.54	324.23	-1059.3	171.97	272.84	-1710	1479.1	354.63	-1759.3	1195.3	366.57
2	0.0041667	NaN	NaN	NaN	-1613	1419.6	519.31	-1662.3	1444.4	186.12	-1616.2	1738.1	360.88	NaN	NaN	NaN	NaN	NaN	NaN	-1746	957.78	323.58	NaN	NaN	NaN	-1643.2	870.13	530.13	-1595.7	865.72	160.47	-1644.3	1042.8	505.22	-1610.7	1049.1	194.15	NaN	NaN	NaN	-1736.7	695.89	507.94	-1685.3	577.65	473.09	NaN	NaN	NaN	-1664.7	661.29	503.84	-1773.1	497.99	466.08	-1786.2	510.96	338.71	-1923.1	368.52	467.75	-1912.2	275.35	450.62	NaN	NaN	NaN	-1853.8	351.17	451.12	-2038.5	153.25	410.39	-2005.1	155.03	333.51	-2099.7	131.64	360.66	-2093.4	100.67	334.89	-2102.8	108.08	395.15	-1944	43.559	450.81	-1915	47.722	332.97	-1852.5	51.608	383.52	-1525.2	658.61	172.78	-1404.4	618.38	194.65	-1470.9	587.11	190.92	-1456.8	687.97	170.98	-1412.4	510.23	207.99	-1399.5	511.76	333.07	-1388.3	322.22	206.66	-1288.8	271.32	223.54	-1362.1	253.97	221.76	-1323.3	337.86	209.53	-1263.3	104.69	230.13	-1242.3	122.21	316.5	-1327.4	69.664	285.47	-1267.8	36.718	315.09	NaN	NaN	NaN	-1120.4	103.53	212.3	-1102.2	123.67	324.34	-1056.1	167.59	273.02	-1704.6	1478.5	354.08	-1753.3	1194.6	366.25
3	0.0083333	NaN	NaN	NaN	-1607.1	1419.2	518.7	-1656.6	1443.7	185.52	-1610.9	1737.6	360.33	NaN	NaN	NaN	NaN	NaN	NaN	-1739.5	957.42	323.16	NaN	NaN	NaN	-1637	869.36	529.58	-1589	865.51	159.94	-1637.8	1042.1	504.9	-1604.4	1048.8	193.8	NaN	NaN	NaN	-1730.8	695.34	507.41	-1681.2	577.33	473.33	NaN	NaN	NaN	-1658.8	660.58	503.4	-1767.8	497.64	465.93	-1780.3	510.42	338.47	-1918.6	369.38	467.71	-1908.5	276.12	451	NaN	NaN	NaN	-1849.4	351.55	451.15	-2036.3	155.31	410.86	-2002.7	156.68	334.02	-2097.4	134.74	360.96	-2091.6	103.89	335.04	-2101.1	111.08	395.32	-1943.6	43.708	450.86	-1914.7	47.864	333.14	-1852.7	51.485	383.84	-1518.6	658.67	172.73	-1398	618.3	194.86	-1464.4	587.12	190.97	-1450.2	687.97	171.11	-1405.6	509.93	208.16	-1393.5	511.45	333.05	-1383.6	321.89	206.63	-1284.6	270.22	223.8	-1357.8	253.47	221.66	-1318.4	337.01	209.77	-1260.9	103.58	230.26	-1239.6	120.8	316.79	-1325.3	69.618	285.97	-1266.5	36.498	315.35	NaN	NaN	NaN	-1118.1	100.24	212.63	-1099.6	119.67	324.47	-1052.8	163.04	273.22	-1698.9	1477.9	353.51	-1747.1	1193.8	365.93
4	0.0125	NaN	NaN	NaN	-1601.1	1418.8	518.07	-1650.7	1443.1	184.9	-1605.3	1737.1	359.76	NaN	NaN	NaN	NaN	NaN	NaN	-1732.8	957.09	322.73	NaN	NaN	NaN	-1630.5	868.56	529.02	-1582.1	865.34	159.38	-1631.1	1041.5	504.58	-1597.8	1048.5	193.43	NaN	NaN	NaN	-1724.7	694.76	506.86	-1676.8	576.97	473.53	NaN	NaN	NaN	-1652.6	659.86	502.95	-1762.2	497.27	465.79	-1774.1	509.85	338.24	-1913.8	370.25	467.69	-1904.6	276.96	451.34	NaN	NaN	NaN	-1844.7	351.96	451.19	-2034	157.46	411.37	-2000.1	158.4	334.57	-2094.9	138	361.29	-2089.7	107.3	335.21	-2099.2	114.26	395.52	-1943.3	43.88	450.92	-1914.3	48.021	333.31	-1852.9	51.367	384.13	-1511.7	658.79	172.66	-1391.3	618.26	195.07	-1457.6	587.18	191.01	-1443.3	688.02	171.24	-1398.7	509.66	208.31	-1387.3	511.18	333.01	-1378.6	321.61	206.58	-1280.1	269.15	224.06	-1353.4	253.02	221.55	-1313.4	336.2	210.01	-1258.4	102.49	230.38	-1236.7	119.41	317.08	-1323.2	69.623	286.46	-1265.2	36.314	315.6	NaN	NaN	NaN	-1115.7	96.864	212.99	-1097	115.59	324.62	-1049.4	158.35	273.46	-1693	1477.3	352.92	-1740.7	1193.1	365.59
